Preview_AmstlevarItalicNon-Brokn -wght_100.00_wdth_125.00_opsz_8.00.ufo
<glyph name="exclam" format="2">
  <advance width="664"/>
  <unicode hex="0021"/>
  <outline>
    <contour>
      <point x="95.0" y="80.0" type="qcurve" smooth="yes"/>
      <point x="95.0" y="120.0"/>
      <point x="154.0" y="183.0"/>
      <point x="201.0" y="183.0" type="qcurve" smooth="yes"/>
      <point x="249.0" y="183.0"/>
      <point x="309.0" y="120.0"/>
      <point x="309.0" y="80.0" type="qcurve" smooth="yes"/>
      <point x="309.0" y="38.0"/>
      <point x="249.0" y="-24.0"/>
      <point x="201.0" y="-24.0" type="qcurve" smooth="yes"/>
      <point x="154.0" y="-24.0"/>
      <point x="95.0" y="38.0"/>
    </contour>
    <contour>
      <point x="373.0" y="1378.0" type="line" smooth="yes"/>
      <point x="378.0" y="1446.0"/>
      <point x="423.0" y="1557.0"/>
      <point x="472.0" y="1557.0" type="qcurve" smooth="yes"/>
      <point x="516.0" y="1557.0"/>
      <point x="553.0" y="1453.0"/>
      <point x="534.0" y="1385.0" type="qcurve" smooth="yes"/>
      <point x="458.0" y="1111.0" type="line"/>
      <point x="386.0" y="803.0" type="line"/>
      <point x="303.0" y="477.0" type="line"/>
      <point x="258.0" y="486.0" type="line"/>
      <point x="302.0" y="797.0" type="line"/>
      <point x="352.0" y="1105.0" type="line"/>
    </contour>
  </outline>
</glyph>
<glyph name="quotedbl" format="2">
  <advance width="933"/>
  <unicode hex="0022"/>
  <outline>
    <contour>
      <point x="209.0" y="944.0" type="line"/>
      <point x="249.0" y="1403.0" type="line" smooth="yes"/>
      <point x="255.0" y="1462.0"/>
      <point x="319.0" y="1562.0"/>
      <point x="358.0" y="1562.0" type="qcurve" smooth="yes"/>
      <point x="409.0" y="1562.0"/>
      <point x="424.0" y="1456.0"/>
      <point x="409.0" y="1403.0" type="qcurve" smooth="yes"/>
      <point x="273.0" y="934.0" type="line"/>
    </contour>
    <contour>
      <point x="589.0" y="944.0" type="line"/>
      <point x="629.0" y="1403.0" type="line" smooth="yes"/>
      <point x="635.0" y="1462.0"/>
      <point x="699.0" y="1562.0"/>
      <point x="738.0" y="1562.0" type="qcurve" smooth="yes"/>
      <point x="788.0" y="1562.0"/>
      <point x="804.0" y="1456.0"/>
      <point x="789.0" y="1403.0" type="qcurve" smooth="yes"/>
      <point x="653.0" y="934.0" type="line"/>
    </contour>
  </outline>
</glyph>
<glyph name="numbersign" format="2">
  <advance width="1428"/>
  <unicode hex="0023"/>
  <outline>
    <contour>
      <point x="-69.0" y="429.0" type="line"/>
      <point x="-39.0" y="518.0" type="line"/>
      <point x="1206.0" y="518.0" type="line"/>
      <point x="1176.0" y="429.0" type="line"/>
    </contour>
    <contour>
      <point x="70.0" y="954.0" type="line"/>
      <point x="100.0" y="1042.0" type="line"/>
      <point x="1345.0" y="1042.0" type="line"/>
      <point x="1315.0" y="954.0" type="line"/>
    </contour>
    <contour>
      <point x="73.0" y="21.0" type="line"/>
      <point x="605.0" y="1466.0" type="line"/>
      <point x="705.0" y="1441.0" type="line"/>
      <point x="174.0" y="-4.0" type="line"/>
    </contour>
    <contour>
      <point x="583.0" y="21.0" type="line"/>
      <point x="1115.0" y="1466.0" type="line"/>
      <point x="1215.0" y="1441.0" type="line"/>
      <point x="683.0" y="-4.0" type="line"/>
    </contour>
  </outline>
</glyph>
<glyph name="ampersand" format="2">
  <advance width="1933"/>
  <unicode hex="0026"/>
  <outline>
    <contour>
      <point x="1267.0" y="-25.0" type="line"/>
      <point x="1166.0" y="135.0" type="line"/>
      <point x="1061.0" y="66.0"/>
      <point x="757.0" y="-33.0"/>
      <point x="555.0" y="-33.0" type="qcurve" smooth="yes"/>
      <point x="284.0" y="-33.0"/>
      <point x="13.0" y="206.0"/>
      <point x="48.0" y="404.0" type="qcurve" smooth="yes"/>
      <point x="79.0" y="579.0"/>
      <point x="431.0" y="778.0"/>
      <point x="718.0" y="803.0" type="qcurve"/>
      <point x="567.0" y="849.0"/>
      <point x="374.0" y="1085.0"/>
      <point x="419.0" y="1241.0" type="qcurve" smooth="yes"/>
      <point x="465.0" y="1406.0"/>
      <point x="806.0" y="1569.0"/>
      <point x="1011.0" y="1561.0" type="qcurve" smooth="yes"/>
      <point x="1143.0" y="1556.0"/>
      <point x="1393.0" y="1499.0"/>
      <point x="1420.0" y="1499.0" type="qcurve" smooth="yes"/>
      <point x="1441.0" y="1499.0"/>
      <point x="1461.0" y="1514.0"/>
      <point x="1464.0" y="1526.0" type="qcurve"/>
      <point x="1520.0" y="1526.0" type="line"/>
      <point x="1414.0" y="1129.0" type="line"/>
      <point x="1320.0" y="1129.0" type="line"/>
      <point x="1368.0" y="1366.0" type="line"/>
      <point x="1327.0" y="1398.0"/>
      <point x="1122.0" y="1437.0"/>
      <point x="1004.0" y="1437.0" type="qcurve" smooth="yes"/>
      <point x="833.0" y="1437.0"/>
      <point x="572.0" y="1327.0"/>
      <point x="551.0" y="1216.0" type="qcurve" smooth="yes"/>
      <point x="512.0" y="1020.0"/>
      <point x="823.0" y="802.0"/>
      <point x="1173.0" y="794.0" type="qcurve" smooth="yes"/>
      <point x="1482.0" y="788.0"/>
      <point x="1786.0" y="829.0"/>
      <point x="1880.0" y="892.0" type="qcurve"/>
      <point x="1901.0" y="870.0" type="line"/>
      <point x="1875.0" y="798.0"/>
      <point x="1720.0" y="702.0"/>
      <point x="1600.0" y="702.0" type="qcurve" smooth="yes"/>
      <point x="1490.0" y="702.0"/>
      <point x="1032.0" y="712.0"/>
      <point x="912.0" y="712.0" type="qcurve" smooth="yes"/>
      <point x="608.0" y="712.0"/>
      <point x="206.0" y="528.0"/>
      <point x="178.0" y="373.0" type="qcurve" smooth="yes"/>
      <point x="151.0" y="220.0"/>
      <point x="383.0" y="65.0"/>
      <point x="573.0" y="65.0" type="qcurve" smooth="yes"/>
      <point x="794.0" y="65.0"/>
      <point x="1177.0" y="222.0"/>
      <point x="1246.0" y="411.0" type="qcurve" smooth="yes"/>
      <point x="1368.0" y="758.0" type="line"/>
      <point x="1525.0" y="733.0" type="line"/>
      <point x="1353.0" y="369.0"/>
      <point x="1302.0" y="126.0"/>
      <point x="1370.0" y="5.0" type="qcurve"/>
    </contour>
  </outline>
</glyph>
<glyph name="comma" format="2">
  <advance width="515"/>
  <unicode hex="002C"/>
  <outline>
    <contour>
      <point x="77.0" y="-188.0" type="line"/>
      <point x="118.0" y="-161.0"/>
      <point x="219.0" y="-62.0"/>
      <point x="237.0" y="-5.0" type="qcurve"/>
      <point x="184.0" y="-5.0"/>
      <point x="123.0" y="47.0"/>
      <point x="123.0" y="90.0" type="qcurve" smooth="yes"/>
      <point x="123.0" y="131.0"/>
      <point x="187.0" y="194.0"/>
      <point x="234.0" y="194.0" type="qcurve" smooth="yes"/>
      <point x="278.0" y="194.0"/>
      <point x="335.0" y="139.0"/>
      <point x="335.0" y="76.0" type="qcurve" smooth="yes"/>
      <point x="335.0" y="-2.0"/>
      <point x="202.0" y="-192.0"/>
      <point x="120.0" y="-244.0" type="qcurve"/>
    </contour>
  </outline>
</glyph>
<glyph name="hyphen" format="2">
  <advance width="1151"/>
  <unicode hex="002D"/>
  <outline>
    <contour>
      <point x="18.0" y="589.0" type="line"/>
      <point x="18.0" y="740.0" type="line"/>
      <point x="474.0" y="736.0" type="line"/>
      <point x="949.0" y="740.0" type="line"/>
      <point x="949.0" y="589.0" type="line"/>
      <point x="474.0" y="593.0" type="line"/>
    </contour>
  </outline>
</glyph>
<glyph name="slash" format="2">
  <advance width="734"/>
  <unicode hex="002F"/>
  <outline>
    <contour>
      <point x="-90.0" y="-116.0" type="line"/>
      <point x="761.0" y="1557.0" type="line"/>
      <point x="847.0" y="1505.0" type="line"/>
      <point x="-4.0" y="-168.0" type="line"/>
    </contour>
  </outline>
</glyph>
<glyph name="one" format="2">
  <advance width="830"/>
  <unicode hex="0031"/>
  <outline>
    <contour>
      <point x="171.0" y="-13.0" type="line"/>
      <point x="193.0" y="49.0"/>
      <point x="224.0" y="170.0"/>
      <point x="246.0" y="277.0" type="qcurve" smooth="yes"/>
      <point x="407.0" y="1054.0" type="line"/>
      <point x="461.0" y="1367.0" type="line"/>
      <point x="47.0" y="1150.0" type="line"/>
      <point x="17.0" y="1244.0" type="line"/>
      <point x="580.0" y="1545.0" type="line"/>
      <point x="599.0" y="1529.0" type="line"/>
      <point x="584.0" y="1479.0"/>
      <point x="564.0" y="1347.0"/>
      <point x="555.0" y="1295.0" type="qcurve" smooth="yes"/>
      <point x="446.0" y="720.0" type="line"/>
      <point x="366.0" y="89.0" type="line"/>
      <point x="227.0" y="-25.0" type="line"/>
    </contour>
  </outline>
</glyph>
<glyph name="colon" format="2">
  <advance width="463"/>
  <unicode hex="003A"/>
  <outline>
    <contour>
      <point x="29.0" y="81.0" type="qcurve" smooth="yes"/>
      <point x="29.0" y="124.0"/>
      <point x="89.0" y="186.0"/>
      <point x="136.0" y="186.0" type="qcurve" smooth="yes"/>
      <point x="183.0" y="186.0"/>
      <point x="243.0" y="124.0"/>
      <point x="243.0" y="81.0" type="qcurve" smooth="yes"/>
      <point x="243.0" y="40.0"/>
      <point x="183.0" y="-22.0"/>
      <point x="136.0" y="-22.0" type="qcurve" smooth="yes"/>
      <point x="89.0" y="-22.0"/>
      <point x="29.0" y="40.0"/>
    </contour>
    <contour>
      <point x="160.0" y="843.0" type="qcurve" smooth="yes"/>
      <point x="160.0" y="886.0"/>
      <point x="220.0" y="948.0"/>
      <point x="267.0" y="948.0" type="qcurve" smooth="yes"/>
      <point x="314.0" y="948.0"/>
      <point x="374.0" y="886.0"/>
      <point x="374.0" y="843.0" type="qcurve" smooth="yes"/>
      <point x="374.0" y="802.0"/>
      <point x="314.0" y="740.0"/>
      <point x="267.0" y="740.0" type="qcurve" smooth="yes"/>
      <point x="220.0" y="740.0"/>
      <point x="160.0" y="802.0"/>
    </contour>
  </outline>
</glyph>
<glyph name="B" format="2">
  <advance width="1695"/>
  <unicode hex="0042"/>
  <outline>
    <contour>
      <point x="-25.0" y="0.0" type="line"/>
      <point x="-16.0" y="94.0" type="line"/>
      <point x="182.0" y="114.0" type="line"/>
      <point x="317.0" y="767.0" type="line"/>
      <point x="459.0" y="1380.0" type="line"/>
      <point x="220.0" y="1407.0" type="line"/>
      <point x="233.0" y="1500.0" type="line"/>
      <point x="1153.0" y="1500.0" type="line" smooth="yes"/>
      <point x="1327.0" y="1500.0"/>
      <point x="1536.0" y="1308.0"/>
      <point x="1522.0" y="1163.0" type="qcurve" smooth="yes"/>
      <point x="1509.0" y="1028.0"/>
      <point x="1352.0" y="833.0"/>
      <point x="1239.0" y="800.0" type="qcurve"/>
      <point x="1238.0" y="793.0" type="line"/>
      <point x="1368.0" y="759.0"/>
      <point x="1517.0" y="574.0"/>
      <point x="1492.0" y="413.0" type="qcurve" smooth="yes"/>
      <point x="1462.0" y="215.0"/>
      <point x="1213.0" y="0.0"/>
      <point x="935.0" y="0.0" type="qcurve" smooth="yes"/>
    </contour>
    <contour>
      <point x="336.0" y="134.0" type="line"/>
      <point x="354.0" y="105.0" type="line"/>
      <point x="914.0" y="105.0" type="line" smooth="yes"/>
      <point x="1102.0" y="105.0"/>
      <point x="1338.0" y="293.0"/>
      <point x="1357.0" y="420.0" type="qcurve" smooth="yes"/>
      <point x="1376.0" y="546.0"/>
      <point x="1214.0" y="734.0"/>
      <point x="1069.0" y="734.0" type="qcurve" smooth="yes"/>
      <point x="447.0" y="734.0" type="line"/>
      <point x="442.0" y="706.0" type="line"/>
    </contour>
    <contour>
      <point x="471.0" y="850.0" type="line"/>
      <point x="466.0" y="827.0" type="line"/>
      <point x="1057.0" y="827.0" type="line" smooth="yes"/>
      <point x="1186.0" y="827.0"/>
      <point x="1379.0" y="1010.0"/>
      <point x="1396.0" y="1154.0" type="qcurve" smooth="yes"/>
      <point x="1409.0" y="1260.0"/>
      <point x="1246.0" y="1396.0"/>
      <point x="1123.0" y="1396.0" type="qcurve" smooth="yes"/>
      <point x="628.0" y="1396.0" type="line"/>
      <point x="599.0" y="1378.0" type="line"/>
    </contour>
  </outline>
</glyph>
<glyph name="J" format="2">
  <advance width="861"/>
  <unicode hex="004A"/>
  <outline>
    <contour>
      <point x="-190.0" y="-216.0" type="qcurve"/>
      <point x="-165.0" y="-116.0" type="line"/>
      <point x="-141.0" y="-129.0"/>
      <point x="-54.0" y="-142.0"/>
      <point x="-4.0" y="-142.0" type="qcurve" smooth="yes"/>
      <point x="105.0" y="-142.0"/>
      <point x="173.0" y="-1.0"/>
      <point x="201.0" y="151.0" type="qcurve" smooth="yes"/>
      <point x="307.0" y="754.0" type="line"/>
      <point x="411.0" y="1384.0" type="line"/>
      <point x="187.0" y="1410.0" type="line"/>
      <point x="204.0" y="1500.0" type="line"/>
      <point x="807.0" y="1500.0" type="line"/>
      <point x="775.0" y="1410.0" type="line"/>
      <point x="563.0" y="1384.0" type="line"/>
      <point x="438.0" y="754.0" type="line"/>
      <point x="357.0" y="176.0" type="line" smooth="yes"/>
      <point x="323.0" y="-76.0"/>
      <point x="135.0" y="-259.0"/>
      <point x="6.0" y="-259.0" type="qcurve" smooth="yes"/>
      <point x="-83.0" y="-259.0"/>
      <point x="-160.0" y="-230.0"/>
    </contour>
  </outline>
</glyph>
<glyph name="N" format="2">
  <advance width="2182"/>
  <unicode hex="004E"/>
  <outline>
    <contour>
      <point x="-67.0" y="0.0" type="line"/>
      <point x="-39.0" y="104.0" type="line"/>
      <point x="175.0" y="116.0" type="line"/>
      <point x="308.0" y="753.0" type="line"/>
      <point x="434.0" y="1389.0" type="line"/>
      <point x="193.0" y="1402.0" type="line"/>
      <point x="217.0" y="1500.0" type="line"/>
      <point x="679.0" y="1500.0" type="line"/>
      <point x="1118.0" y="796.0" type="line"/>
      <point x="1530.0" y="116.0" type="line"/>
      <point x="1664.0" y="770.0" type="line"/>
      <point x="1772.0" y="1381.0" type="line"/>
      <point x="1521.0" y="1407.0" type="line"/>
      <point x="1537.0" y="1500.0" type="line"/>
      <point x="2187.0" y="1500.0" type="line"/>
      <point x="2173.0" y="1406.0" type="line"/>
      <point x="1944.0" y="1380.0" type="line"/>
      <point x="1819.0" y="753.0" type="line"/>
      <point x="1678.0" y="-4.0" type="line"/>
      <point x="1464.0" y="-4.0" type="line"/>
      <point x="979.0" y="773.0" type="line"/>
      <point x="597.0" y="1393.0" type="line"/>
      <point x="468.0" y="755.0" type="line"/>
      <point x="340.0" y="119.0" type="line"/>
      <point x="612.0" y="101.0" type="line"/>
      <point x="586.0" y="0.0" type="line"/>
    </contour>
  </outline>
</glyph>
<glyph name="R" format="2">
  <advance width="1702"/>
  <unicode hex="0052"/>
  <outline>
    <contour>
      <point x="2.0" y="0.0" type="line"/>
      <point x="22.0" y="94.0" type="line"/>
      <point x="223.0" y="112.0" type="line"/>
      <point x="361.0" y="784.0" type="line"/>
      <point x="458.0" y="1380.0" type="line"/>
      <point x="213.0" y="1407.0" type="line"/>
      <point x="224.0" y="1500.0" type="line"/>
      <point x="996.0" y="1500.0" type="line" smooth="yes"/>
      <point x="1247.0" y="1502.0"/>
      <point x="1494.0" y="1267.0"/>
      <point x="1479.0" y="1071.0" type="qcurve" smooth="yes"/>
      <point x="1468.0" y="888.0"/>
      <point x="1211.0" y="661.0"/>
      <point x="889.0" y="661.0" type="qcurve" smooth="yes"/>
      <point x="809.0" y="661.0"/>
      <point x="534.0" y="660.0"/>
      <point x="468.0" y="665.0" type="qcurve"/>
      <point x="484.0" y="776.0" type="line"/>
      <point x="569.0" y="776.0" type="line"/>
      <point x="869.0" y="776.0" type="line" smooth="yes"/>
      <point x="1092.0" y="776.0"/>
      <point x="1360.0" y="951.0"/>
      <point x="1370.0" y="1100.0" type="qcurve" smooth="yes"/>
      <point x="1380.0" y="1238.0"/>
      <point x="1180.0" y="1397.0"/>
      <point x="1015.0" y="1397.0" type="qcurve" smooth="yes"/>
      <point x="640.0" y="1397.0" type="line"/>
      <point x="607.0" y="1375.0" type="line"/>
      <point x="498.0" y="754.0" type="line"/>
      <point x="385.0" y="115.0" type="line"/>
      <point x="597.0" y="97.0" type="line"/>
      <point x="596.0" y="0.0" type="line"/>
    </contour>
    <contour>
      <point x="930.0" y="767.0" type="line"/>
      <point x="1068.0" y="786.0" type="line"/>
      <point x="1104.0" y="718.0" type="line" smooth="yes"/>
      <point x="1201.0" y="451.0"/>
      <point x="1422.0" y="52.0"/>
      <point x="1651.0" y="86.0" type="qcurve"/>
      <point x="1625.0" y="0.0" type="line"/>
      <point x="1525.0" y="0.0" type="line" smooth="yes"/>
      <point x="1289.0" y="0.0"/>
      <point x="1046.0" y="442.0"/>
      <point x="958.0" y="701.0" type="qcurve" smooth="yes"/>
    </contour>
  </outline>
</glyph>
<glyph name="T" format="2">
  <advance width="1762"/>
  <unicode hex="0054"/>
  <outline>
    <contour>
      <point x="96.0" y="1119.0" type="line"/>
      <point x="171.0" y="1500.0" type="line"/>
      <point x="1760.0" y="1500.0" type="line"/>
      <point x="1695.0" y="1119.0" type="line"/>
      <point x="1565.0" y="1119.0" type="line"/>
      <point x="1563.0" y="1397.0" type="line"/>
      <point x="1032.0" y="1397.0" type="line"/>
      <point x="1010.0" y="1377.0" type="line"/>
      <point x="896.0" y="754.0" type="line"/>
      <point x="775.0" y="116.0" type="line"/>
      <point x="1000.0" y="87.0" type="line"/>
      <point x="985.0" y="0.0" type="line"/>
      <point x="390.0" y="0.0" type="line"/>
      <point x="421.0" y="87.0" type="line"/>
      <point x="628.0" y="116.0" type="line"/>
      <point x="749.0" y="754.0" type="line"/>
      <point x="867.0" y="1377.0" type="line"/>
      <point x="863.0" y="1397.0" type="line"/>
      <point x="328.0" y="1397.0" type="line"/>
      <point x="225.0" y="1119.0" type="line"/>
    </contour>
  </outline>
</glyph>
<glyph name="bracketleft" format="2">
  <advance width="680"/>
  <unicode hex="005B"/>
  <outline>
    <contour>
      <point x="114.0" y="508.0" type="line"/>
      <point x="291.0" y="1427.0" type="line"/>
      <point x="286.0" y="1447.0" type="line"/>
      <point x="296.0" y="1500.0" type="line"/>
      <point x="704.0" y="1500.0" type="line"/>
      <point x="684.0" y="1414.0" type="line"/>
      <point x="392.0" y="1395.0" type="line"/>
      <point x="220.0" y="508.0" type="line"/>
      <point x="54.0" y="-373.0" type="line"/>
      <point x="339.0" y="-392.0" type="line"/>
      <point x="319.0" y="-480.0" type="line"/>
      <point x="-89.0" y="-480.0" type="line"/>
      <point x="-77.0" y="-427.0" type="line"/>
      <point x="-64.0" y="-407.0" type="line"/>
    </contour>
  </outline>
</glyph>
<glyph name="asciicircum" format="2">
  <advance width="1317"/>
  <unicode hex="005E"/>
  <outline>
    <contour>
      <point x="91.0" y="926.0" type="line"/>
      <point x="157.0" y="988.0"/>
      <point x="723.0" y="1524.0"/>
      <point x="723.0" y="1524.0" type="qcurve"/>
      <point x="723.0" y="1524.0"/>
      <point x="1112.0" y="993.0"/>
      <point x="1163.0" y="927.0" type="qcurve"/>
      <point x="1090.0" y="869.0" type="line"/>
      <point x="987.0" y="991.0"/>
      <point x="700.0" y="1354.0"/>
      <point x="700.0" y="1354.0" type="qcurve"/>
      <point x="700.0" y="1354.0"/>
      <point x="297.0" y="971.0"/>
      <point x="153.0" y="844.0" type="qcurve"/>
    </contour>
  </outline>
</glyph>
<glyph name="d" format="2">
  <advance width="1743"/>
  <unicode hex="0064"/>
  <outline>
    <contour>
      <point x="38.0" y="243.0" type="qcurve" smooth="yes"/>
      <point x="26.0" y="592.0"/>
      <point x="590.0" y="1073.0"/>
      <point x="1081.0" y="1055.0" type="qcurve" smooth="yes"/>
      <point x="1311.0" y="1055.0" type="line"/>
      <point x="1397.0" y="1446.0" type="line"/>
      <point x="1185.0" y="1463.0" type="line"/>
      <point x="1186.0" y="1526.0" type="line"/>
      <point x="1519.0" y="1608.0" type="line"/>
      <point x="1543.0" y="1571.0" type="line"/>
      <point x="1306.0" y="469.0" type="line"/>
      <point x="1208.0" y="124.0" type="line"/>
      <point x="1566.0" y="124.0" type="line"/>
      <point x="1557.0" y="44.0" type="line"/>
      <point x="1198.0" y="-16.0" type="line"/>
      <point x="1118.0" y="78.0" type="line"/>
      <point x="1113.0" y="160.0" type="line"/>
      <point x="1012.0" y="118.0"/>
      <point x="668.0" y="-20.0"/>
      <point x="416.0" y="-20.0" type="qcurve" smooth="yes"/>
      <point x="234.0" y="-20.0"/>
      <point x="42.0" y="121.0"/>
    </contour>
    <contour>
      <point x="189.0" y="280.0" type="qcurve" smooth="yes"/>
      <point x="191.0" y="154.0"/>
      <point x="347.0" y="75.0"/>
      <point x="481.0" y="75.0" type="qcurve" smooth="yes"/>
      <point x="676.0" y="75.0"/>
      <point x="1112.0" y="227.0"/>
      <point x="1153.0" y="403.0" type="qcurve" smooth="yes"/>
      <point x="1264.0" y="876.0" type="line"/>
      <point x="1266.0" y="900.0"/>
      <point x="1138.0" y="975.0"/>
      <point x="943.0" y="975.0" type="qcurve" smooth="yes"/>
      <point x="608.0" y="975.0"/>
      <point x="185.0" y="502.0"/>
    </contour>
  </outline>
</glyph>
<glyph name="e" format="2">
  <advance width="1374"/>
  <unicode hex="0065"/>
  <outline>
    <contour>
      <point x="-8.0" y="532.0" type="qcurve" smooth="yes"/>
      <point x="43.0" y="771.0"/>
      <point x="473.0" y="1078.0"/>
      <point x="771.0" y="1078.0" type="qcurve" smooth="yes"/>
      <point x="899.0" y="1078.0"/>
      <point x="1109.0" y="970.0"/>
      <point x="1140.0" y="891.0" type="qcurve" smooth="yes"/>
      <point x="1171.0" y="828.0"/>
      <point x="1172.0" y="647.0"/>
      <point x="1160.0" y="600.0" type="qcurve"/>
      <point x="1206.0" y="578.0" type="line"/>
      <point x="1179.0" y="513.0" type="line"/>
      <point x="1097.0" y="519.0"/>
      <point x="848.0" y="523.0"/>
      <point x="743.0" y="523.0" type="qcurve" smooth="yes"/>
      <point x="98.0" y="521.0" type="line"/>
      <point x="108.0" y="606.0" type="line"/>
      <point x="1047.0" y="618.0" type="line"/>
      <point x="1060.0" y="644.0"/>
      <point x="1064.0" y="763.0"/>
      <point x="1046.0" y="843.0" type="qcurve" smooth="yes"/>
      <point x="1035.0" y="906.0"/>
      <point x="883.0" y="999.0"/>
      <point x="732.0" y="999.0" type="qcurve" smooth="yes"/>
      <point x="528.0" y="999.0"/>
      <point x="180.0" y="692.0"/>
      <point x="136.0" y="521.0" type="qcurve" smooth="yes"/>
      <point x="84.0" y="319.0"/>
      <point x="256.0" y="46.0"/>
      <point x="454.0" y="46.0" type="qcurve" smooth="yes"/>
      <point x="650.0" y="46.0"/>
      <point x="976.0" y="187.0"/>
      <point x="1055.0" y="252.0" type="qcurve"/>
      <point x="1118.0" y="219.0" type="line"/>
      <point x="1147.0" y="203.0" type="line"/>
      <point x="1027.0" y="82.0"/>
      <point x="704.0" y="-38.0"/>
      <point x="472.0" y="-40.0" type="qcurve" smooth="yes"/>
      <point x="157.0" y="-39.0"/>
      <point x="-63.0" y="278.0"/>
    </contour>
  </outline>
</glyph>
<glyph name="l" format="2">
  <advance width="714"/>
  <unicode hex="006C"/>
  <outline>
    <contour>
      <point x="152.0" y="-35.0" type="line"/>
      <point x="90.0" y="-17.0" type="line"/>
      <point x="234.0" y="587.0" type="line"/>
      <point x="423.0" y="1445.0" type="line"/>
      <point x="165.0" y="1463.0" type="line"/>
      <point x="175.0" y="1529.0" type="line"/>
      <point x="515.0" y="1604.0" type="line"/>
      <point x="551.0" y="1563.0" type="line"/>
      <point x="334.0" y="568.0" type="line"/>
      <point x="234.0" y="113.0" type="line"/>
      <point x="485.0" y="122.0" type="line"/>
      <point x="483.0" y="34.0" type="line"/>
    </contour>
  </outline>
</glyph>
<glyph name="m" format="2">
  <advance width="2659"/>
  <unicode hex="006D"/>
  <outline>
    <contour>
      <point x="135.0" y="-19.0" type="line"/>
      <point x="79.0" y="50.0" type="line"/>
      <point x="249.0" y="584.0" type="line"/>
      <point x="311.0" y="921.0" type="line"/>
      <point x="39.0" y="902.0" type="line"/>
      <point x="57.0" y="999.0" type="line"/>
      <point x="376.0" y="1049.0" type="line"/>
      <point x="433.0" y="1049.0" type="line"/>
      <point x="406.0" y="787.0" type="line"/>
      <point x="389.0" y="639.0" type="line"/>
      <point x="239.0" y="158.0" type="line"/>
      <point x="343.0" y="26.0" type="line"/>
    </contour>
    <contour>
      <point x="1146.0" y="-27.0" type="line"/>
      <point x="1040.0" y="56.0" type="line"/>
      <point x="1228.0" y="746.0" type="line" smooth="yes"/>
      <point x="1254.0" y="844.0"/>
      <point x="1147.0" y="941.0"/>
      <point x="1070.0" y="941.0" type="qcurve" smooth="yes"/>
      <point x="910.0" y="941.0"/>
      <point x="480.0" y="725.0"/>
      <point x="359.0" y="563.0" type="qcurve"/>
      <point x="357.0" y="670.0" type="line"/>
      <point x="516.0" y="829.0"/>
      <point x="948.0" y="1062.0"/>
      <point x="1134.0" y="1062.0" type="qcurve" smooth="yes"/>
      <point x="1282.0" y="1062.0"/>
      <point x="1367.0" y="826.0"/>
      <point x="1320.0" y="587.0" type="qcurve" smooth="yes"/>
      <point x="1220.0" y="229.0" type="line"/>
      <point x="1325.0" y="36.0" type="line"/>
    </contour>
    <contour>
      <point x="2094.0" y="-8.0" type="line"/>
      <point x="1995.0" y="85.0" type="line"/>
      <point x="2174.0" y="746.0" type="line" smooth="yes"/>
      <point x="2201.0" y="844.0"/>
      <point x="2095.0" y="941.0"/>
      <point x="2018.0" y="941.0" type="qcurve" smooth="yes"/>
      <point x="1858.0" y="941.0"/>
      <point x="1426.0" y="715.0"/>
      <point x="1305.0" y="553.0" type="qcurve"/>
      <point x="1303.0" y="660.0" type="line"/>
      <point x="1467.0" y="827.0"/>
      <point x="1915.0" y="1062.0"/>
      <point x="2097.0" y="1062.0" type="qcurve" smooth="yes"/>
      <point x="2230.0" y="1062.0"/>
      <point x="2331.0" y="867.0"/>
      <point x="2289.0" y="661.0" type="qcurve" smooth="yes"/>
      <point x="2143.0" y="111.0" type="line"/>
      <point x="2451.0" y="132.0" type="line"/>
      <point x="2449.0" y="47.0" type="line"/>
    </contour>
  </outline>
</glyph>
<glyph name="z" format="2">
  <advance width="1276"/>
  <unicode hex="007A"/>
  <outline>
    <contour>
      <point x="-23.0" y="-20.0" type="line"/>
      <point x="-86.0" y="50.0" type="line"/>
      <point x="72.0" y="163.0"/>
      <point x="415.0" y="457.0"/>
      <point x="516.0" y="544.0" type="qcurve" smooth="yes"/>
      <point x="603.0" y="623.0"/>
      <point x="869.0" y="842.0"/>
      <point x="988.0" y="938.0" type="qcurve"/>
      <point x="317.0" y="934.0" type="line"/>
      <point x="190.0" y="715.0" type="line"/>
      <point x="103.0" y="715.0" type="line"/>
      <point x="200.0" y="1019.0" type="line"/>
      <point x="263.0" y="1049.0" type="line"/>
      <point x="1168.0" y="1050.0" type="line"/>
      <point x="1196.0" y="1003.0" type="line"/>
      <point x="1081.0" y="889.0"/>
      <point x="780.0" y="607.0"/>
      <point x="650.0" y="493.0" type="qcurve" smooth="yes"/>
      <point x="569.0" y="433.0"/>
      <point x="296.0" y="214.0"/>
      <point x="214.0" y="157.0" type="qcurve"/>
      <point x="917.0" y="123.0" type="line"/>
      <point x="1085.0" y="341.0" type="line"/>
      <point x="1149.0" y="322.0" type="line"/>
      <point x="1006.0" y="4.0" type="line"/>
      <point x="953.0" y="-15.0" type="line"/>
      <point x="71.0" y="64.0" type="line"/>
    </contour>
  </outline>
</glyph>
<glyph name="acute" format="2">
  <advance width="1024"/>
  <unicode hex="00B4"/>
  <outline>
    <contour>
      <point x="482.0" y="1207.0" type="line"/>
      <point x="517.0" y="1146.0" type="line"/>
      <point x="905.0" y="1339.0" type="line" smooth="yes"/>
      <point x="958.0" y="1363.0"/>
      <point x="1013.0" y="1410.0"/>
      <point x="1016.0" y="1433.0" type="qcurve" smooth="yes"/>
      <point x="1019.0" y="1467.0"/>
      <point x="984.0" y="1507.0"/>
      <point x="961.0" y="1509.0" type="qcurve" smooth="yes"/>
      <point x="926.0" y="1512.0"/>
      <point x="858.0" y="1454.0"/>
      <point x="814.0" y="1432.0" type="qcurve" smooth="yes"/>
    </contour>
  </outline>
</glyph>
<glyph name="ae" format="2">
  <advance width="2603"/>
  <unicode hex="00E6"/>
  <outline>
    <contour>
      <point x="195.0" y="317.0" type="qcurve" smooth="yes"/>
      <point x="197.0" y="174.0"/>
      <point x="353.0" y="91.0"/>
      <point x="475.0" y="91.0" type="qcurve" smooth="yes"/>
      <point x="690.0" y="91.0"/>
      <point x="1159.0" y="166.0"/>
      <point x="1194.0" y="408.0" type="qcurve" smooth="yes"/>
      <point x="1264.0" y="850.0" type="line"/>
      <point x="1258.0" y="878.0"/>
      <point x="1103.0" y="945.0"/>
      <point x="909.0" y="945.0" type="qcurve" smooth="yes"/>
      <point x="620.0" y="945.0"/>
      <point x="191.0" y="533.0"/>
    </contour>
    <contour>
      <point x="38.0" y="291.0" type="qcurve" smooth="yes"/>
      <point x="30.0" y="610.0"/>
      <point x="601.0" y="1047.0"/>
      <point x="961.0" y="1047.0" type="qcurve" smooth="yes"/>
      <point x="1073.0" y="1047.0"/>
      <point x="1221.0" y="1029.0"/>
      <point x="1260.0" y="1010.0" type="qcurve"/>
      <point x="1317.0" y="1096.0" type="line"/>
      <point x="1368.0" y="1096.0" type="line"/>
      <point x="1402.0" y="862.0" type="line"/>
      <point x="1528.0" y="948.0"/>
      <point x="1849.0" y="1052.0"/>
      <point x="1984.0" y="1052.0" type="qcurve" smooth="yes"/>
      <point x="2157.0" y="1052.0"/>
      <point x="2306.0" y="976.0"/>
      <point x="2349.0" y="893.0" type="qcurve" smooth="yes"/>
      <point x="2386.0" y="830.0"/>
      <point x="2389.0" y="661.0"/>
      <point x="2377.0" y="613.0" type="qcurve"/>
      <point x="2444.0" y="587.0" type="line"/>
      <point x="2411.0" y="509.0" type="line"/>
      <point x="2299.0" y="515.0"/>
      <point x="2069.0" y="523.0"/>
      <point x="1964.0" y="523.0" type="qcurve" smooth="yes"/>
      <point x="1319.0" y="521.0" type="line"/>
      <point x="1329.0" y="609.0" type="line"/>
      <point x="2264.0" y="618.0" type="line"/>
      <point x="2278.0" y="647.0"/>
      <point x="2273.0" y="749.0"/>
      <point x="2259.0" y="817.0" type="qcurve" smooth="yes"/>
      <point x="2250.0" y="880.0"/>
      <point x="2078.0" y="972.0"/>
      <point x="1930.0" y="972.0" type="qcurve" smooth="yes"/>
      <point x="1704.0" y="972.0"/>
      <point x="1399.0" y="692.0"/>
      <point x="1351.0" y="497.0" type="qcurve" smooth="yes"/>
      <point x="1302.0" y="298.0"/>
      <point x="1493.0" y="71.0"/>
      <point x="1679.0" y="71.0" type="qcurve" smooth="yes"/>
      <point x="1891.0" y="71.0"/>
      <point x="2197.0" y="209.0"/>
      <point x="2258.0" y="267.0" type="qcurve"/>
      <point x="2357.0" y="293.0" type="line"/>
      <point x="2354.0" y="214.0" type="line"/>
      <point x="2244.0" y="102.0"/>
      <point x="1885.0" y="-18.0"/>
      <point x="1673.0" y="-6.0" type="qcurve" smooth="yes"/>
      <point x="1490.0" y="4.0"/>
      <point x="1284.0" y="65.0"/>
      <point x="1220.0" y="224.0" type="qcurve"/>
      <point x="1028.0" y="115.0"/>
      <point x="627.0" y="-18.0"/>
      <point x="426.0" y="-18.0" type="qcurve" smooth="yes"/>
      <point x="243.0" y="-18.0"/>
      <point x="42.0" y="112.0"/>
    </contour>
  </outline>
</glyph>
<glyph name="OE" format="2">
  <advance width="2592"/>
  <unicode hex="0152"/>
  <outline>
    <contour>
      <point x="48.0" y="858.0" type="qcurve" smooth="yes"/>
      <point x="129.0" y="1204.0"/>
      <point x="602.0" y="1504.0"/>
      <point x="1050.0" y="1508.0" type="qcurve" smooth="yes"/>
      <point x="1008.0" y="1516.0"/>
      <point x="1136.0" y="1500.0"/>
      <point x="1187.0" y="1500.0" type="qcurve" smooth="yes"/>
      <point x="2534.0" y="1500.0" type="line"/>
      <point x="2503.0" y="1167.0" type="line"/>
      <point x="2384.0" y="1167.0" type="line"/>
      <point x="2359.0" y="1397.0" type="line"/>
      <point x="1633.0" y="1397.0" type="line"/>
      <point x="1598.0" y="1371.0" type="line"/>
      <point x="1491.0" y="805.0" type="line"/>
      <point x="1368.0" y="131.0" type="line"/>
      <point x="1377.0" y="108.0" type="line"/>
      <point x="2167.0" y="108.0" type="line"/>
      <point x="2300.0" y="369.0" type="line"/>
      <point x="2430.0" y="369.0" type="line"/>
      <point x="2361.0" y="0.0" type="line"/>
      <point x="1214.0" y="0.0" type="line" smooth="yes"/>
      <point x="1163.0" y="-1.0"/>
      <point x="834.0" y="-27.0"/>
      <point x="745.0" y="-25.0" type="qcurve" smooth="yes"/>
      <point x="303.0" y="-4.0"/>
      <point x="-28.0" y="525.0"/>
    </contour>
    <contour>
      <point x="182.0" y="806.0" type="qcurve" smooth="yes"/>
      <point x="140.0" y="613.0"/>
      <point x="279.0" y="162.0"/>
      <point x="664.0" y="108.0" type="qcurve" smooth="yes"/>
      <point x="750.0" y="81.0"/>
      <point x="1103.0" y="125.0"/>
      <point x="1214.0" y="179.0" type="qcurve"/>
      <point x="1348.0" y="783.0" type="line"/>
      <point x="1443.0" y="1357.0" type="line"/>
      <point x="1341.0" y="1382.0"/>
      <point x="1244.0" y="1401.0"/>
      <point x="1071.0" y="1406.0" type="qcurve" smooth="yes"/>
      <point x="668.0" y="1407.0"/>
      <point x="234.0" y="1047.0"/>
    </contour>
    <contour>
      <point x="1448.0" y="721.0" type="line"/>
      <point x="1467.0" y="848.0" type="line"/>
      <point x="2175.0" y="850.0" type="line"/>
      <point x="2246.0" y="1026.0" type="line"/>
      <point x="2359.0" y="1026.0" type="line"/>
      <point x="2274.0" y="571.0" type="line"/>
      <point x="2175.0" y="571.0" type="line"/>
      <point x="2166.0" y="736.0" type="line"/>
    </contour>
  </outline>
</glyph>
<glyph name="circumflex" format="2">
  <advance width="1024"/>
  <unicode hex="02C6"/>
  <outline>
    <contour>
      <point x="695.0" y="1489.0" type="qcurve" smooth="yes"/>
      <point x="722.0" y="1489.0"/>
      <point x="764.0" y="1453.0"/>
      <point x="789.0" y="1416.0" type="qcurve" smooth="yes"/>
      <point x="1004.0" y="1180.0" type="line"/>
      <point x="954.0" y="1140.0" type="line"/>
      <point x="684.0" y="1363.0" type="line"/>
      <point x="284.0" y="1140.0" type="line"/>
      <point x="243.0" y="1192.0" type="line"/>
      <point x="565.0" y="1416.0" type="line" smooth="yes"/>
      <point x="624.0" y="1457.0"/>
      <point x="667.0" y="1489.0"/>
    </contour>
  </outline>
</glyph>
<glyph name="ogonek" format="2">
  <advance width="1024"/>
  <unicode hex="02DB"/>
  <outline>
    <contour>
      <point x="331.0" y="-302.0" type="qcurve" smooth="yes"/>
      <point x="334.0" y="-368.0"/>
      <point x="413.0" y="-424.0"/>
      <point x="488.0" y="-424.0" type="qcurve" smooth="yes"/>
      <point x="552.0" y="-424.0"/>
      <point x="668.0" y="-375.0"/>
      <point x="735.0" y="-318.0" type="qcurve"/>
      <point x="755.0" y="-370.0" type="line"/>
      <point x="709.0" y="-423.0"/>
      <point x="546.0" y="-495.0"/>
      <point x="462.0" y="-495.0" type="qcurve" smooth="yes"/>
      <point x="342.0" y="-495.0"/>
      <point x="218.0" y="-405.0"/>
      <point x="223.0" y="-322.0" type="qcurve" smooth="yes"/>
      <point x="228.0" y="-234.0"/>
      <point x="389.0" y="-84.0"/>
      <point x="501.0" y="-13.0" type="qcurve" smooth="yes"/>
      <point x="569.0" y="30.0" type="line"/>
      <point x="609.0" y="0.0" type="line"/>
      <point x="536.0" y="-45.0" type="line" smooth="yes"/>
      <point x="453.0" y="-94.0"/>
      <point x="329.0" y="-230.0"/>
    </contour>
  </outline>
</glyph>
<glyph name="Germandbls" format="2">
  <advance width="1880"/>
  <unicode hex="1E9E"/>
  <outline>
    <contour>
      <point x="436.0" y="-358.0" type="line"/>
      <point x="425.0" y="-448.0" type="line"/>
      <point x="-159.0" y="-448.0" type="line"/>
      <point x="-143.0" y="-358.0" type="line"/>
      <point x="69.0" y="-334.0" type="line"/>
      <point x="275.0" y="760.0" type="line"/>
      <point x="353.0" y="1170.0" type="line" smooth="yes"/>
      <point x="388.0" y="1355.0"/>
      <point x="641.0" y="1556.0"/>
      <point x="869.0" y="1556.0" type="qcurve" smooth="yes"/>
      <point x="950.0" y="1556.0"/>
      <point x="1030.0" y="1535.0"/>
      <point x="1098.0" y="1515.0" type="qcurve" smooth="yes"/>
      <point x="1154.0" y="1500.0" type="line"/>
      <point x="1173.0" y="1393.0" type="line"/>
      <point x="980.0" y="1399.0"/>
      <point x="794.0" y="1288.0"/>
      <point x="794.0" y="1178.0" type="qcurve" smooth="yes"/>
      <point x="794.0" y="1073.0"/>
      <point x="948.0" y="947.0"/>
      <point x="1173.0" y="856.0" type="qcurve" smooth="yes"/>
      <point x="1442.0" y="744.0"/>
      <point x="1695.0" y="527.0"/>
      <point x="1687.0" y="375.0" type="qcurve" smooth="yes"/>
      <point x="1677.0" y="170.0"/>
      <point x="1319.0" y="-25.0"/>
      <point x="1176.0" y="-25.0" type="qcurve" smooth="yes"/>
      <point x="892.0" y="-25.0"/>
      <point x="615.0" y="47.0"/>
      <point x="550.0" y="108.0" type="qcurve"/>
      <point x="491.0" y="-46.0" type="line"/>
      <point x="404.0" y="-36.0" type="line"/>
      <point x="488.0" y="459.0" type="line"/>
      <point x="594.0" y="458.0" type="line"/>
      <point x="590.0" y="339.0" type="line" smooth="yes"/>
      <point x="588.0" y="204.0"/>
      <point x="882.0" y="81.0"/>
      <point x="1048.0" y="81.0" type="qcurve" smooth="yes"/>
      <point x="1309.0" y="81.0"/>
      <point x="1521.0" y="247.0"/>
      <point x="1525.0" y="377.0" type="qcurve" smooth="yes"/>
      <point x="1528.0" y="517.0"/>
      <point x="1316.0" y="677.0"/>
      <point x="1093.0" y="765.0" type="qcurve" smooth="yes"/>
      <point x="919.0" y="829.0"/>
      <point x="663.0" y="982.0"/>
      <point x="663.0" y="1135.0" type="qcurve" smooth="yes"/>
      <point x="663.0" y="1251.0"/>
      <point x="847.0" y="1428.0"/>
      <point x="989.0" y="1443.0" type="qcurve"/>
      <point x="690.0" y="1462.0"/>
      <point x="523.0" y="1347.0"/>
      <point x="498.0" y="1197.0" type="qcurve" smooth="yes"/>
      <point x="422.0" y="760.0" type="line"/>
      <point x="216.0" y="-329.0" type="line"/>
    </contour>
  </outline>
</glyph>
<glyph name="daggerdbl" format="2">
  <advance width="1073"/>
  <unicode hex="2021"/>
  <outline>
    <contour>
      <point x="300.0" y="-540.0" type="line"/>
      <point x="335.0" y="-58.0" type="line"/>
      <point x="469.0" y="550.0" type="line"/>
      <point x="524.0" y="830.0" type="line"/>
      <point x="641.0" y="1468.0" type="line"/>
      <point x="673.0" y="1506.0" type="line"/>
      <point x="758.0" y="1506.0" type="line"/>
      <point x="780.0" y="1468.0" type="line"/>
      <point x="627.0" y="830.0" type="line"/>
      <point x="573.0" y="550.0" type="line"/>
      <point x="471.0" y="-58.0" type="line"/>
      <point x="320.0" y="-540.0" type="line"/>
    </contour>
    <contour>
      <point x="103.0" y="890.0" type="line"/>
      <point x="105.0" y="962.0" type="line"/>
      <point x="596.0" y="954.0" type="line"/>
      <point x="1087.0" y="962.0" type="line"/>
      <point x="1085.0" y="890.0" type="line"/>
      <point x="597.0" y="894.0" type="line"/>
    </contour>
    <contour>
      <point x="21.0" y="460.0" type="line"/>
      <point x="23.0" y="532.0" type="line"/>
      <point x="514.0" y="524.0" type="line"/>
      <point x="1005.0" y="532.0" type="line"/>
      <point x="1003.0" y="460.0" type="line"/>
      <point x="514.0" y="464.0" type="line"/>
    </contour>
  </outline>
</glyph>
<glyph name="bullet" format="2">
  <advance width="664"/>
  <unicode hex="2022"/>
  <outline>
    <contour>
      <point x="75.0" y="795.0" type="qcurve" smooth="yes"/>
      <point x="75.0" y="860.0"/>
      <point x="167.0" y="955.0"/>
      <point x="239.0" y="955.0" type="qcurve" smooth="yes"/>
      <point x="311.0" y="955.0"/>
      <point x="403.0" y="860.0"/>
      <point x="403.0" y="795.0" type="qcurve" smooth="yes"/>
      <point x="403.0" y="730.0"/>
      <point x="311.0" y="635.0"/>
      <point x="239.0" y="635.0" type="qcurve" smooth="yes"/>
      <point x="167.0" y="635.0"/>
      <point x="75.0" y="730.0"/>
    </contour>
  </outline>
</glyph>
<glyph name="foursuperior" format="2">
  <advance width="941"/>
  <unicode hex="2074"/>
  <outline>
    <contour>
      <point x="-18.0" y="905.0" type="line"/>
      <point x="-7.0" y="990.0" type="line"/>
      <point x="610.0" y="1534.0" type="line"/>
      <point x="719.0" y="1516.0" type="line"/>
      <point x="729.0" y="1494.0" type="line"/>
      <point x="623.0" y="945.0" type="line"/>
      <point x="584.0" y="717.0" type="line"/>
      <point x="581.0" y="647.0" type="line"/>
      <point x="464.0" y="618.0" type="line"/>
      <point x="425.0" y="671.0" type="line"/>
      <point x="488.0" y="932.0" type="line"/>
      <point x="573.0" y="1400.0" type="line"/>
      <point x="139.0" y="1016.0" type="line"/>
      <point x="139.0" y="988.0" type="line"/>
      <point x="505.0" y="997.0" type="line"/>
      <point x="770.0" y="997.0" type="line"/>
      <point x="760.0" y="903.0" type="line"/>
      <point x="524.0" y="909.0" type="line"/>
    </contour>
  </outline>
</glyph>
<glyph name="guarani" format="2">
  <advance width="1544"/>
  <unicode hex="20B2"/>
  <outline>
    <contour>
      <point x="473.0" y="-191.0" type="line"/>
      <point x="522.0" y="48.0" type="line"/>
      <point x="522.0" y="46.0" type="line"/>
      <point x="679.0" y="838.0" type="line"/>
      <point x="765.0" y="803.0" type="line"/>
      <point x="613.0" y="36.0" type="line"/>
      <point x="597.0" y="35.0" type="line"/>
      <point x="555.0" y="-183.0" type="line"/>
    </contour>
    <contour>
      <point x="830.0" y="1633.0" type="line"/>
      <point x="933.0" y="1633.0" type="line"/>
      <point x="905.0" y="1481.0" type="line"/>
      <point x="899.0" y="1481.0" type="line"/>
      <point x="765.0" y="803.0" type="line"/>
      <point x="678.0" y="838.0" type="line"/>
      <point x="805.0" y="1486.0" type="line"/>
      <point x="803.0" y="1487.0" type="line"/>
    </contour>
    <contour>
      <point x="26.0" y="776.0" type="qcurve" smooth="yes"/>
      <point x="71.0" y="1160.0"/>
      <point x="568.0" y="1551.0"/>
      <point x="940.0" y="1536.0" type="qcurve" smooth="yes"/>
      <point x="1149.0" y="1526.0"/>
      <point x="1391.0" y="1348.0"/>
      <point x="1434.0" y="1214.0" type="qcurve"/>
      <point x="1294.0" y="1214.0" type="line"/>
      <point x="1266.0" y="1302.0"/>
      <point x="1123.0" y="1404.0"/>
      <point x="952.0" y="1409.0" type="qcurve" smooth="yes"/>
      <point x="703.0" y="1410.0"/>
      <point x="178.0" y="1097.0"/>
      <point x="133.0" y="747.0" type="qcurve" smooth="yes"/>
      <point x="90.0" y="406.0"/>
      <point x="329.0" y="71.0"/>
      <point x="585.0" y="59.0" type="qcurve" smooth="yes"/>
      <point x="749.0" y="48.0"/>
      <point x="1036.0" y="172.0"/>
      <point x="1141.0" y="223.0" type="qcurve"/>
      <point x="1207.0" y="608.0" type="line"/>
      <point x="939.0" y="647.0" type="line"/>
      <point x="960.0" y="738.0" type="line"/>
      <point x="1361.0" y="729.0" type="line"/>
      <point x="1267.0" y="162.0" type="line"/>
      <point x="1200.0" y="140.0" type="line"/>
      <point x="1105.0" y="64.0"/>
      <point x="837.0" y="-42.0"/>
      <point x="648.0" y="-44.0" type="qcurve" smooth="yes"/>
      <point x="293.0" y="-44.0"/>
      <point x="-27.0" y="344.0"/>
    </contour>
  </outline>
</glyph>
<glyph name="liraTurkish" format="2">
  <advance width="1349"/>
  <unicode hex="20BA"/>
  <outline>
    <contour>
      <point x="52.0" y="492.0" type="line"/>
      <point x="52.0" y="601.0" type="line"/>
      <point x="368.0" y="662.0" type="line"/>
      <point x="367.0" y="658.0" type="line"/>
      <point x="819.0" y="742.0" type="line"/>
      <point x="789.0" y="635.0" type="line"/>
      <point x="346.0" y="556.0" type="line"/>
      <point x="345.0" y="552.0" type="line"/>
    </contour>
    <contour>
      <point x="125.0" y="831.0" type="line"/>
      <point x="122.0" y="937.0" type="line"/>
      <point x="415.0" y="981.0" type="line"/>
      <point x="415.0" y="988.0" type="line"/>
      <point x="917.0" y="1073.0" type="line"/>
      <point x="885.0" y="961.0" type="line"/>
      <point x="404.0" y="885.0" type="line"/>
      <point x="404.0" y="883.0" type="line"/>
    </contour>
    <contour>
      <point x="274.0" y="78.0" type="line"/>
      <point x="278.0" y="51.0" type="line"/>
      <point x="436.0" y="72.0"/>
      <point x="952.0" y="304.0"/>
      <point x="1003.0" y="490.0" type="qcurve" smooth="yes"/>
      <point x="1056.0" y="684.0" type="line"/>
      <point x="1107.0" y="684.0" type="line"/>
      <point x="1117.0" y="400.0" type="line"/>
      <point x="1012.0" y="255.0"/>
      <point x="558.0" y="48.0"/>
      <point x="351.0" y="-8.0" type="qcurve"/>
      <point x="196.0" y="-29.0" type="line"/>
      <point x="118.0" y="39.0" type="line"/>
      <point x="154.0" y="122.0" type="line"/>
      <point x="282.0" y="754.0" type="line"/>
      <point x="406.0" y="1394.0" type="line"/>
      <point x="173.0" y="1408.0" type="line"/>
      <point x="187.0" y="1500.0" type="line"/>
      <point x="768.0" y="1500.0" type="line"/>
      <point x="740.0" y="1408.0" type="line"/>
      <point x="536.0" y="1394.0" type="line"/>
      <point x="408.0" y="754.0" type="line"/>
    </contour>
  </outline>
</glyph>
<glyph name="bulletoperator" format="2">
  <advance width="1024"/>
  <unicode hex="2219"/>
  <outline>
    <contour>
      <point x="325.0" y="666.0" type="qcurve" smooth="yes"/>
      <point x="325.0" y="709.0"/>
      <point x="384.0" y="772.0"/>
      <point x="431.0" y="772.0" type="qcurve" smooth="yes"/>
      <point x="478.0" y="772.0"/>
      <point x="537.0" y="709.0"/>
      <point x="537.0" y="666.0" type="qcurve" smooth="yes"/>
      <point x="537.0" y="624.0"/>
      <point x="478.0" y="561.0"/>
      <point x="431.0" y="561.0" type="qcurve" smooth="yes"/>
      <point x="384.0" y="561.0"/>
      <point x="325.0" y="624.0"/>
    </contour>
  </outline>
</glyph>
<glyph name="fl" format="2">
  <advance width="1423"/>
  <unicode hex="FB02"/>
  <outline>
    <contour>
      <point x="-333.0" y="-423.0" type="line"/>
      <point x="-306.0" y="-361.0" type="line"/>
      <point x="-121.0" y="-377.0" type="line" smooth="yes"/>
      <point x="13.0" y="-385.0"/>
      <point x="101.0" y="-268.0"/>
      <point x="123.0" y="-127.0" type="qcurve" smooth="yes"/>
      <point x="292.0" y="912.0" type="line"/>
      <point x="289.0" y="942.0" type="line"/>
      <point x="364.0" y="1383.0" type="line" smooth="yes"/>
      <point x="358.0" y="1404.0"/>
      <point x="545.0" y="1579.0"/>
      <point x="684.0" y="1582.0" type="qcurve" smooth="yes"/>
      <point x="815.0" y="1585.0"/>
      <point x="967.0" y="1495.0"/>
      <point x="967.0" y="1463.0" type="qcurve" smooth="yes"/>
      <point x="967.0" y="1432.0"/>
      <point x="951.0" y="1353.0"/>
      <point x="924.0" y="1353.0" type="qcurve" smooth="yes"/>
      <point x="914.0" y="1353.0"/>
      <point x="907.0" y="1382.0"/>
      <point x="897.0" y="1384.0" type="qcurve" smooth="yes"/>
      <point x="874.0" y="1411.0"/>
      <point x="780.0" y="1462.0"/>
      <point x="688.0" y="1462.0" type="qcurve" smooth="yes"/>
      <point x="576.0" y="1462.0"/>
      <point x="498.0" y="1314.0"/>
      <point x="503.0" y="1375.0" type="qcurve" smooth="yes"/>
      <point x="418.0" y="936.0" type="line"/>
      <point x="432.0" y="920.0" type="line"/>
      <point x="265.0" y="-10.0" type="line" smooth="yes"/>
      <point x="228.0" y="-225.0"/>
      <point x="107.0" y="-474.0"/>
      <point x="-82.0" y="-474.0" type="qcurve"/>
    </contour>
    <contour>
      <point x="35.0" y="879.0" type="line"/>
      <point x="29.0" y="958.0" type="line"/>
      <point x="338.0" y="996.0" type="line"/>
      <point x="1098.0" y="976.0" type="line"/>
      <point x="1088.0" y="890.0" type="line"/>
      <point x="365.0" y="887.0" type="line"/>
      <point x="358.0" y="869.0" type="line"/>
    </contour>
    <contour>
      <point x="888.0" y="-35.0" type="line"/>
      <point x="826.0" y="-17.0" type="line"/>
      <point x="964.0" y="587.0" type="line"/>
      <point x="1138.0" y="1430.0" type="line"/>
      <point x="830.0" y="1418.0" type="line"/>
      <point x="840.0" y="1494.0" type="line"/>
      <point x="1230.0" y="1609.0" type="line"/>
      <point x="1266.0" y="1568.0" type="line"/>
      <point x="1064.0" y="568.0" type="line"/>
      <point x="970.0" y="113.0" type="line"/>
      <point x="1221.0" y="122.0" type="line"/>
      <point x="1219.0" y="34.0" type="line"/>
    </contour>
  </outline>
</glyph>
<glyph name="acutecombstack.case" format="2">
  <advance width="1024"/>
  <outline>
    <contour>
      <point x="767.0" y="1908.0" type="qcurve" smooth="yes"/>
      <point x="774.0" y="1867.0"/>
      <point x="673.0" y="1786.0"/>
      <point x="587.0" y="1740.0" type="qcurve" smooth="yes"/>
      <point x="303.0" y="1654.0" type="line"/>
      <point x="298.0" y="1717.0" type="line"/>
      <point x="594.0" y="1928.0" type="line" smooth="yes"/>
      <point x="636.0" y="1947.0"/>
      <point x="681.0" y="1957.0"/>
      <point x="692.0" y="1965.0" type="qcurve" smooth="yes"/>
      <point x="732.0" y="1971.0"/>
      <point x="762.0" y="1928.0"/>
    </contour>
  </outline>
</glyph>
<glyph name="dblgravecomb" format="2">
  <advance width="1024"/>
  <outline>
    <contour>
      <point x="58.0" y="1239.0" type="qcurve" smooth="yes"/>
      <point x="33.0" y="1267.0"/>
      <point x="40.0" y="1338.0"/>
      <point x="73.0" y="1363.0" type="qcurve" smooth="yes"/>
      <point x="107.0" y="1388.0"/>
      <point x="220.0" y="1385.0"/>
      <point x="280.0" y="1361.0" type="qcurve" smooth="yes"/>
      <point x="618.0" y="1218.0" type="line"/>
      <point x="637.0" y="1130.0" type="line"/>
      <point x="221.0" y="1172.0" type="line" smooth="yes"/>
      <point x="156.0" y="1178.0"/>
      <point x="85.0" y="1210.0"/>
    </contour>
    <contour>
      <point x="603.0" y="1263.0" type="qcurve" smooth="yes"/>
      <point x="576.0" y="1291.0"/>
      <point x="583.0" y="1362.0"/>
      <point x="615.0" y="1386.0" type="qcurve" smooth="yes"/>
      <point x="649.0" y="1413.0"/>
      <point x="748.0" y="1413.0"/>
      <point x="806.0" y="1392.0" type="qcurve" smooth="yes"/>
      <point x="1150.0" y="1245.0" type="line"/>
      <point x="1169.0" y="1154.0" type="line"/>
      <point x="747.0" y="1203.0" type="line" smooth="yes"/>
      <point x="682.0" y="1210.0"/>
      <point x="627.0" y="1233.0"/>
    </contour>
  </outline>
</glyph>
<glyph name="dotaccentcomb.case" format="2">
  <advance width="1024"/>
  <outline>
    <contour>
      <point x="511.0" y="1720.0" type="qcurve" smooth="yes"/>
      <point x="511.0" y="1779.0"/>
      <point x="548.0" y="1817.0"/>
      <point x="609.0" y="1817.0" type="qcurve" smooth="yes"/>
      <point x="659.0" y="1817.0"/>
      <point x="707.0" y="1766.0"/>
      <point x="707.0" y="1720.0" type="qcurve" smooth="yes"/>
      <point x="707.0" y="1662.0"/>
      <point x="670.0" y="1622.0"/>
      <point x="609.0" y="1622.0" type="qcurve" smooth="yes"/>
      <point x="562.0" y="1622.0"/>
      <point x="511.0" y="1674.0"/>
    </contour>
  </outline>
</glyph>
<glyph name="eight.tab" format="2">
  <advance width="1500"/>
  <outline>
    <contour>
      <point x="24.0" y="321.0" type="qcurve" smooth="yes"/>
      <point x="15.0" y="489.0"/>
      <point x="330.0" y="782.0"/>
      <point x="613.0" y="880.0" type="qcurve"/>
      <point x="706.0" y="812.0" type="line"/>
      <point x="457.0" y="721.0"/>
      <point x="173.0" y="491.0"/>
      <point x="180.0" y="332.0" type="qcurve" smooth="yes"/>
      <point x="186.0" y="212.0"/>
      <point x="389.0" y="82.0"/>
      <point x="565.0" y="82.0" type="qcurve" smooth="yes"/>
      <point x="802.0" y="82.0"/>
      <point x="1049.0" y="259.0"/>
      <point x="1049.0" y="417.0" type="qcurve" smooth="yes"/>
      <point x="1049.0" y="535.0"/>
      <point x="798.0" y="751.0"/>
      <point x="659.0" y="816.0" type="qcurve" smooth="yes"/>
      <point x="505.0" y="883.0"/>
      <point x="301.0" y="1045.0"/>
      <point x="293.0" y="1182.0" type="qcurve" smooth="yes"/>
      <point x="285.0" y="1325.0"/>
      <point x="582.0" y="1550.0"/>
      <point x="840.0" y="1550.0" type="qcurve" smooth="yes"/>
      <point x="1040.0" y="1550.0"/>
      <point x="1254.0" y="1378.0"/>
      <point x="1255.0" y="1244.0" type="qcurve" smooth="yes"/>
      <point x="1256.0" y="1074.0"/>
      <point x="1003.0" y="905.0"/>
      <point x="779.0" y="816.0" type="qcurve"/>
      <point x="686.0" y="890.0" type="line"/>
      <point x="889.0" y="972.0"/>
      <point x="1146.0" y="1120.0"/>
      <point x="1149.0" y="1212.0" type="qcurve" smooth="yes"/>
      <point x="1152.0" y="1314.0"/>
      <point x="972.0" y="1448.0"/>
      <point x="828.0" y="1448.0" type="qcurve" smooth="yes"/>
      <point x="642.0" y="1448.0"/>
      <point x="412.0" y="1297.0"/>
      <point x="417.0" y="1187.0" type="qcurve" smooth="yes"/>
      <point x="421.0" y="1078.0"/>
      <point x="612.0" y="924.0"/>
      <point x="806.0" y="828.0" type="qcurve" smooth="yes"/>
      <point x="1011.0" y="715.0"/>
      <point x="1173.0" y="518.0"/>
      <point x="1177.0" y="378.0" type="qcurve" smooth="yes"/>
      <point x="1183.0" y="188.0"/>
      <point x="851.0" y="-21.0"/>
      <point x="545.0" y="-21.0" type="qcurve" smooth="yes"/>
      <point x="303.0" y="-21.0"/>
      <point x="32.0" y="168.0"/>
    </contour>
  </outline>
</glyph>
<glyph name="engtail" format="2">
  <advance width="1099"/>
  <outline>
    <contour>
      <point x="108.0" y="-351.0" type="qcurve"/>
      <point x="169.0" y="-273.0" type="line"/>
      <point x="183.0" y="-301.0"/>
      <point x="211.0" y="-339.0"/>
      <point x="252.0" y="-339.0" type="qcurve" smooth="yes"/>
      <point x="322.0" y="-339.0"/>
      <point x="391.0" y="-304.0"/>
      <point x="413.0" y="-212.0" type="qcurve" smooth="yes"/>
      <point x="493.0" y="123.0" type="line"/>
      <point x="551.0" y="162.0" type="line"/>
      <point x="639.0" y="162.0" type="line"/>
      <point x="577.0" y="-203.0" type="line" smooth="yes"/>
      <point x="542.0" y="-387.0"/>
      <point x="400.0" y="-448.0"/>
      <point x="321.0" y="-448.0" type="qcurve" smooth="yes"/>
      <point x="204.0" y="-448.0"/>
      <point x="127.0" y="-392.0"/>
    </contour>
  </outline>
</glyph>
<glyph name="hornU" format="2">
  <advance width="2062"/>
  <outline>
    <contour>
      <point x="114.0" y="1408.0" type="line"/>
      <point x="128.0" y="1500.0" type="line"/>
      <point x="731.0" y="1500.0" type="line"/>
      <point x="715.0" y="1408.0" type="line"/>
      <point x="477.0" y="1382.0" type="line"/>
      <point x="364.0" y="794.0" type="line" smooth="yes"/>
      <point x="346.0" y="702.0"/>
      <point x="312.0" y="515.0"/>
      <point x="318.0" y="382.0" type="qcurve" smooth="yes"/>
      <point x="323.0" y="219.0"/>
      <point x="628.0" y="92.0"/>
      <point x="865.0" y="95.0" type="qcurve" smooth="yes"/>
      <point x="1162.0" y="99.0"/>
      <point x="1464.0" y="319.0"/>
      <point x="1502.0" y="515.0" type="qcurve" smooth="yes"/>
      <point x="1558.0" y="794.0" type="line"/>
      <point x="1661.0" y="1382.0" type="line"/>
      <point x="1400.0" y="1408.0" type="line"/>
      <point x="1413.0" y="1500.0" type="line"/>
      <point x="1823.0" y="1500.0" type="line"/>
      <point x="1690.0" y="794.0" type="line"/>
      <point x="1632.0" y="493.0" type="line" smooth="yes"/>
      <point x="1584.0" y="246.0"/>
      <point x="1215.0" y="-35.0"/>
      <point x="863.0" y="-35.0" type="qcurve" smooth="yes"/>
      <point x="621.0" y="-35.0"/>
      <point x="198.0" y="155.0"/>
      <point x="188.0" y="365.0" type="qcurve" smooth="yes"/>
      <point x="184.0" y="445.0"/>
      <point x="190.0" y="616.0"/>
      <point x="226.0" y="794.0" type="qcurve" smooth="yes"/>
      <point x="343.0" y="1382.0" type="line"/>
    </contour>
  </outline>
</glyph>
<glyph name="six.lc" format="2">
  <advance width="1381"/>
  <outline>
    <contour>
      <point x="87.0" y="387.0" type="qcurve" smooth="yes"/>
      <point x="79.0" y="681.0"/>
      <point x="691.0" y="1191.0"/>
      <point x="1206.0" y="1295.0" type="qcurve"/>
      <point x="1229.0" y="1216.0" type="line"/>
      <point x="774.0" y="1101.0"/>
      <point x="227.0" y="667.0"/>
      <point x="233.0" y="373.0" type="qcurve" smooth="yes"/>
      <point x="235.0" y="226.0"/>
      <point x="464.0" y="73.0"/>
      <point x="637.0" y="69.0" type="qcurve" smooth="yes"/>
      <point x="855.0" y="65.0"/>
      <point x="1152.0" y="263.0"/>
      <point x="1138.0" y="423.0" type="qcurve" smooth="yes"/>
      <point x="1130.0" y="524.0"/>
      <point x="971.0" y="638.0"/>
      <point x="818.0" y="638.0" type="qcurve" smooth="yes"/>
      <point x="730.0" y="638.0"/>
      <point x="564.0" y="589.0"/>
      <point x="514.0" y="567.0" type="qcurve"/>
      <point x="496.0" y="635.0" type="line"/>
      <point x="550.0" y="672.0"/>
      <point x="734.0" y="726.0"/>
      <point x="843.0" y="726.0" type="qcurve" smooth="yes"/>
      <point x="1037.0" y="726.0"/>
      <point x="1276.0" y="566.0"/>
      <point x="1277.0" y="422.0" type="qcurve" smooth="yes"/>
      <point x="1280.0" y="231.0"/>
      <point x="924.0" y="-33.0"/>
      <point x="619.0" y="-33.0" type="qcurve" smooth="yes"/>
      <point x="365.0" y="-33.0"/>
      <point x="92.0" y="188.0"/>
    </contour>
  </outline>
</glyph>
